<?xml version="1.0" encoding="utf-8"?>
<!-- Svg Vector Icons : http://www.onlinewebfonts.com/icon -->
<!DOCTYPE svg PUBLIC "-//W3C//DTD SVG 1.1//EN" "http://www.w3.org/Graphics/SVG/1.1/DTD/svg11.dtd">
<svg version="1.1" xmlns="http://www.w3.org/2000/svg" xmlns:xlink="http://www.w3.org/1999/xlink" x="0px" y="0px" viewBox="0 0 256 256" enable-background="new 0 0 256 256" xml:space="preserve">
<metadata> Svg Vector Icons : http://www.onlinewebfonts.com/icon </metadata>
<g> <path fill="#000000" d="M20.2,102.4l89.6,56c5,3.1,11.5,4.8,18.3,4.8s13.3-1.7,18.3-4.8l89.6-56c6.1-3.8,9.6-9.5,9.6-15.7 c0-6.1-3.5-11.8-9.6-15.7l-89.6-56c-10-6.2-26.6-6.2-36.5,0L20.2,71c-6.1,3.8-9.6,9.5-9.6,15.7C10.6,92.8,14.1,98.5,20.2,102.4z  M28.9,85l89.6-56c2.4-1.5,5.9-2.3,9.6-2.3s7.2,0.9,9.6,2.3l89.6,56c1.4,0.9,1.8,1.6,1.9,1.7c-0.1,0.2-0.5,0.9-1.9,1.8l-89.6,56 c-4.8,3-14.4,3-19.1,0l-89.6-56c-1.4-0.9-1.8-1.6-1.9-1.7C27,86.6,27.5,85.8,28.9,85z M110.4,198c4.9,3.3,11.3,4.9,17.6,4.9 c6.3,0,12.7-1.6,17.6-4.9l96.8-64.6c3.7-2.4,4.6-7.4,2.2-11c-2.4-3.6-7.4-4.6-11-2.2l-96.8,64.6c-4.6,3.1-13,3.1-17.6,0l-96.8-64.6 c-3.6-2.4-8.6-1.4-11,2.2c-2.4,3.6-1.4,8.6,2.2,11L110.4,198z M233.7,162.9l-96.8,64.6c-4.6,3.1-13,3.1-17.6,0l-96.8-64.6 c-3.6-2.4-8.6-1.4-11,2.2c-2.4,3.6-1.4,8.6,2.2,11l96.8,64.6c4.9,3.3,11.3,4.9,17.6,4.9c6.3,0,12.7-1.6,17.6-4.9l96.8-64.6 c3.7-2.4,4.6-7.4,2.2-11C242.2,161.4,237.3,160.5,233.7,162.9z"/></g>
</svg>